# xmcd
#
# Track frame offsets:
#	150
#	18350
#	32857
#	50680
#	79935
#	98295
#	116832
#	147070
#	162640
#	177742
#	227790
#	245240
#	265577
#	290947
#	313670
#	328810
#
# Disc length: 4633 seconds
#
# Revision: 7
# Processed by: cddbd v1.5.2PL0 Copyright (c) Steve Scherf et al.
# Submitted via: audiograbber 1.83.01
#
DISCID=f0121710
DTITLE=Various (+ track dates) - Feeling the Blues
DYEAR=1994
DGENRE=Blues
TTITLE0=Chet Atkins and Mark Knopfler - Poor Boy Blues (1990)
TTITLE1=Chicken Shack - I'd Rather Go Blind (1974)
TTITLE2=Muddy Waters - I'm Your Hoochie Man (1978)
TTITLE3=Stevie Ray Vaughan and Double Trouble - Ain't Gone 'n' Give up on Love (1
TTITLE3=986)
TTITLE4=Johnny Winter - Cheap Tequila (1973)
TTITLE5=Edgar Winter - Tobacco Road (1992)
TTITLE6=Allman Brothers Band - Gambler's Roll (1990)
TTITLE7=Fleetwood Mac - Need Your Love Tonight (1977)
TTITLE8=Fabulous Thunderbirds - Tuff Enuff (1986)
TTITLE9=Bloomfield, Kooper, Stills - Season of the Witch (1968)
TTITLE10=Rick Derringer with Johnny and Edgar Winter - Skyscraper Blues (1975)
TTITLE11=Omar and the Howlers - Down in Mississippi (1988)
TTITLE12=Gary Moore - Boogie My Way Back Home (1973)
TTITLE13=Vaughan Brothers - Brothers (1990)
TTITLE14=Argent - Schoolgirl (1970)
TTITLE15=Electric Flag - Killing Floor (1968)
EXTD=Track dates provided.
EXTT0=
EXTT1=
EXTT2=
EXTT3=
EXTT4=
EXTT5=
EXTT6=
EXTT7=
EXTT8=
EXTT9=
EXTT10=
EXTT11=
EXTT12=
EXTT13=
EXTT14=
EXTT15=
PLAYORDER=
